<svg width="48" height="48" viewBox="0 0 48 48" fill="none" xmlns="http://www.w3.org/2000/svg">
<rect width="48" height="48" rx="8" fill="#EE382B"/>
<path d="M16.2878 30.1168H31.6682C34.2373 30.1168 36.3392 28.0078 36.3392 25.4302V20.4206C36.3392 17.843 34.2373 15.734 31.6682 15.734H16.2861C13.7172 15.734 11.6151 17.843 11.6151 20.4206V25.4302C11.6167 28.0078 13.7187 30.1168 16.2878 30.1168Z" stroke="#F9FAFB" stroke-width="1.90186" stroke-miterlimit="10"/>
<path d="M11.6164 20.132H11.2581C10.0156 20.132 9 21.3082 9 22.7471C9 24.186 10.0156 25.3622 11.2581 25.3622H11.734" stroke="#F9FAFB" stroke-width="1.41846" stroke-miterlimit="10"/>
<path d="M35.9827 20.132H36.4736C37.8387 20.132 38.9543 21.3082 38.9543 22.7471C38.9543 24.186 37.8387 25.3622 36.4736 25.3622H36.0176" stroke="#F9FAFB" stroke-width="1.41846" stroke-miterlimit="10"/>
<path d="M29.445 15.7339C28.4162 14.1141 26.3252 13 23.925 13C21.6042 13 19.5713 14.0435 18.5094 15.5778" stroke="#F9FAFB" stroke-width="1.64771" stroke-miterlimit="10"/>
<path d="M17.4469 18.5868H30.5075C32.1454 18.5868 33.4866 19.9188 33.4866 21.5496V24.3477C33.4866 25.9748 32.1454 27.3087 30.5075 27.3087H17.4469C15.8091 27.3087 14.4679 25.9766 14.4679 24.3459V21.5496C14.4679 19.9188 15.8073 18.5868 17.4469 18.5868ZM28.3984 24.2807C29.1973 24.2807 29.8433 23.6382 29.8433 22.8437C29.8433 22.0491 29.1955 21.4065 28.3984 21.4065C27.6013 21.4065 26.9535 22.0491 26.9535 22.8437C26.9535 23.6364 27.6013 24.2807 28.3984 24.2807ZM19.6689 24.2807C20.4677 24.2807 21.1137 23.6382 21.1137 22.8437C21.1137 22.0491 20.4677 21.4065 19.6689 21.4065C18.87 21.4065 18.224 22.0491 18.224 22.8437C18.224 23.6364 18.8718 24.2807 19.6689 24.2807Z" fill="#F9FAFB"/>
<path d="M23.1976 32.3917H25.1154C25.5499 32.3917 25.8995 32.0451 25.8995 31.6191V30.8894C25.8995 30.4612 25.5479 30.1168 25.1154 30.1168H23.1955C22.761 30.1168 22.4114 30.4633 22.4114 30.8894V31.6191C22.4114 32.0451 22.7632 32.3917 23.1976 32.3917Z" fill="#F9FAFB"/>
<path d="M24.9429 32.3753L26.2357 39.9589L24.1555 41.6466L22.0753 39.9804L23.3665 32.3753H24.9429Z" fill="#F9FAFB"/>
</svg>
